<svg xmlns="http://www.w3.org/2000/svg" viewBox="0 0 64 64">
  <defs>
    <linearGradient id="g" x1="0" y1="0" x2="1" y2="1">
      <stop offset="0%" stop-color="#f6e3b0"/>
      <stop offset="55%" stop-color="#d9b263"/>
      <stop offset="100%" stop-color="#a9822f"/>
    </linearGradient>
  </defs>
  <rect width="64" height="64" rx="14" fill="#06231b"/>
  <g transform="rotate(-10 32 34)">
    <rect x="14" y="12" width="36" height="44" rx="6" fill="#fbfaf5" stroke="#18222b" stroke-opacity="0.25"/>
    <path d="M32 20c0 0 13 9 13 16.5C45 41 42 44 38 44c-2.3 0-4.2-1-5.4-2.7.2 3.4 1.3 5.8 3.2 7H28.2c1.9-1.2 3-3.6 3.2-7C30.2 43 28.3 44 26 44c-4 0-7-3-7-7.5C19 29 32 20 32 20z" fill="#18222b"/>
  </g>
  <path d="M20 54l2-9 5 5 5-8 5 8 5-5 2 9z" fill="url(#g)"/>
</svg>
